<svg xmlns="http://www.w3.org/2000/svg" width="248" height="70" fill="none"><path fill="#090020" d="M27.255 64.917c.296.348.452.79.437 1.244.009.407-.098.808-.308 1.16a2.1 2.1 0 0 1-.914.791c-.467.202-.973.3-1.483.286H19.01l.628-4.083-.628-3.87h5.766c.438-.01.874.069 1.279.232.334.138.618.37.817.669.19.309.288.666.28 1.028.004.375-.098.743-.295 1.065-.216.34-.533.607-.909.765.503.093.96.343 1.307.713m-2.862 1.943c.271.015.54-.067.753-.232a.9.9 0 0 0 .273-.663.9.9 0 0 0-.302-.651 1.34 1.34 0 0 0-.865-.247H21.66l-.28 1.793zm.25-4.673a.96.96 0 0 0-.65-.206H21.39l.266 1.58h2.303a.96.96 0 0 0 .668-.231.78.78 0 0 0 .26-.617.67.67 0 0 0-.243-.526M45.903 63.468a4 4 0 0 1 1.662.304c.416.178.765.478.999.86.227.398.34.85.328 1.305.012.458-.112.908-.356 1.298-.25.38-.608.679-1.03.86a3.9 3.9 0 0 1-1.603.304h-5.27l.628-4.131-.628-3.822h7.633v1.67h-5.234l.226 1.352zm-.294 3.329c.28.016.555-.07.773-.24a.84.84 0 0 0 .28-.67.84.84 0 0 0-.282-.675 1.15 1.15 0 0 0-.775-.245H43.28l-.287 1.83zM52.368 68.347a1.17 1.17 0 0 1-.449-.44 1.2 1.2 0 0 1-.165-.617 1.2 1.2 0 0 1 .614-1.057 1.31 1.31 0 0 1 1.256 0 1.2 1.2 0 0 1 .613 1.057c.003.217-.054.43-.165.617a1.17 1.17 0 0 1-.448.44 1.29 1.29 0 0 1-1.257 0M68.047 63.791l2.868 4.608h-2.544l-1.737-2.895-2.394 2.895h-2.024v-7.947h2.23v5.005l3.99-5.005h2.37zM75.174 68.059a4 4 0 0 1-1.692-1.46 4.22 4.22 0 0 1 0-4.343 4 4 0 0 1 1.692-1.462 6.36 6.36 0 0 1 5.024 0c.701.326 1.293.84 1.708 1.483s.635 1.389.635 2.15-.22 1.506-.635 2.15a4.07 4.07 0 0 1-1.708 1.482 6.33 6.33 0 0 1-5.024 0m3.869-1.713c.364-.161.672-.424.885-.757a2.34 2.34 0 0 0 0-2.323 2 2 0 0 0-.885-.759 3.58 3.58 0 0 0-2.705 0 2 2 0 0 0-.886.759 2.34 2.34 0 0 0 0 2.324c.213.332.521.595.886.756a3.58 3.58 0 0 0 2.705 0M92.193 63.388v-2.936h2.234v7.953h-2.24v-3.07h-4.142v3.07h-2.24v-7.953h2.24v2.942zM97.548 60.452h8.417v1.955h-3.089v5.998h-2.24v-5.998h-3.088zM111.464 65.222l-.228 1.394h5.129v1.783h-7.537l.616-3.977-.616-3.976h7.477v1.78h-5.069l.228 1.396h4.535v1.6zM32.584 65.222l-.228 1.394h5.13v1.783h-7.538l.616-3.977-.616-3.976h7.477v1.78h-5.069l.228 1.396h4.535v1.6zM125.639 63.791l2.866 4.608h-2.544l-1.738-2.895-2.391 2.895h-2.024v-7.947h2.229v5.005l3.978-5.005h2.37zM139.82 65.067a3.6 3.6 0 0 1-.735 1.839 4.06 4.06 0 0 1-1.624 1.233 5.7 5.7 0 0 1-2.285.438 5.56 5.56 0 0 1-2.466-.52 3.9 3.9 0 0 1-1.656-1.46 4.33 4.33 0 0 1 0-4.343 3.9 3.9 0 0 1 1.656-1.462 5.6 5.6 0 0 1 2.466-.518 5.7 5.7 0 0 1 2.285.438c.64.267 1.2.692 1.624 1.234.413.534.667 1.17.735 1.836h-2.253a1.83 1.83 0 0 0-.781-1.176 2.8 2.8 0 0 0-1.614-.424 2.9 2.9 0 0 0-1.3.272 1.98 1.98 0 0 0-.838.78 2.6 2.6 0 0 0 0 2.39c.194.337.486.608.838.78a3.32 3.32 0 0 0 2.931-.138 1.772 1.772 0 0 0 .775-1.19zM142.218 60.452h8.417v1.955h-3.089v5.998h-2.244v-5.998h-3.088zM152.607 68.348a1.197 1.197 0 0 1-.612-1.057 1.18 1.18 0 0 1 .358-.868 1.23 1.23 0 0 1 .884-.352 1.25 1.25 0 0 1 .882.353 1.2 1.2 0 0 1 .359.867c.003.216-.054.43-.165.617a1.234 1.234 0 0 1-1.076.602 1.24 1.24 0 0 1-.63-.163M171.46 65.067a3.6 3.6 0 0 1-.735 1.839 4.06 4.06 0 0 1-1.625 1.233c-.722.302-1.5.451-2.284.438a5.56 5.56 0 0 1-2.46-.518 3.9 3.9 0 0 1-1.656-1.46 4.31 4.31 0 0 1 0-4.342 3.9 3.9 0 0 1 1.656-1.462 5.6 5.6 0 0 1 2.466-.518 5.7 5.7 0 0 1 2.284.438 4.04 4.04 0 0 1 1.625 1.233c.412.534.667 1.17.735 1.836h-2.253a1.82 1.82 0 0 0-.783-1.176 2.8 2.8 0 0 0-1.614-.423 2.9 2.9 0 0 0-1.298.271 1.98 1.98 0 0 0-.838.78 2.57 2.57 0 0 0 0 2.39c.194.337.485.608.838.78a3.32 3.32 0 0 0 2.92-.138 1.8 1.8 0 0 0 .775-1.19zM173.855 60.452h8.417v1.955h-3.088v5.998h-2.242v-5.998h-3.087zM189.564 64.58l2.398-4.134h2.424l-4.658 7.953h-2.425l1.026-1.75-3.649-6.197h2.472zM205.34 66.458h1.399V70h-2.094v-1.602h-6.792V70h-2.093v-3.543h1.032c.308-.4.518-.863.613-1.355a9.4 9.4 0 0 0 .21-2.112q0-1.028-.161-2.545h7.907zm-2.24.02v-4.112h-3.465q.032.457.032 1.077 0 2.088-.61 3.037zM212.182 66.21l3.978-5.758h2.931v7.953h-2.213v-5.88l-4.049 5.88h-2.846v-7.953h2.213zM230.515 60.452v7.953h-2.241V65.54h-1.279l-2.133 2.858h-2.596l2.303-3.017a3.1 3.1 0 0 1-1.118-.475 2.3 2.3 0 0 1-.729-.822 2.49 2.49 0 0 1 .132-2.424 2.5 2.5 0 0 1 1.089-.899 3.8 3.8 0 0 1 1.614-.319zm-2.241 3.536V62.02h-2.38a1.27 1.27 0 0 0-.852.262.9.9 0 0 0-.304.72.9.9 0 0 0 .304.727c.242.186.545.278.852.26zM27.257 0c9.264 0 15.969 6.574 15.969 14.907 0 8.564-6.696 14.985-15.97 14.985H5.996v11.775H0V0zm0 23.393c5.687 0 8.875-3.592 8.875-8.486 0-4.816-3.192-8.408-8.875-8.408H5.996v16.894zM191.811 0v6.421h-24.604v10.313h22.423v6.423h-22.423V35.16h25.376v6.499h-33.05V0zM226.77 0v35.169h20.465v6.498h-27.548V0zM70.833 0H63.75v41.668h7.083zM94.5 41.668l16.851-22.676 5.333 5.244-13.302 17.432z"/><path fill="#090020" d="m94.056 0 34.132 41.668h8.195L102.675 0z"/><path fill="#090020" fill-rule="evenodd" d="M135.486 3.295h-9.882V.073h13.163V8.7h-9.621v1.903h9.864v3.223h-13.145V5.478h9.621z" clip-rule="evenodd"/></svg>