<svg xmlns="http://www.w3.org/2000/svg" width="117" height="1383" fill="none"><mask id="a" width="104" height="115" x="7" y="1250" maskUnits="userSpaceOnUse" style="mask-type:luminance"><path fill="#fff" d="M110.023 1287.43c.656-1.48.851-3.13.56-4.73-1.248-.32-7.442-1.55-7.442-1.55l-3.725-4.44a10.76 10.76 0 0 0-4.422-1.73l-.576-4.41 2.176-2.92c-.2-.43-.485-.81-.835-1.13-.35-.31-.76-.56-1.204-.71l-.361.42a2.9 2.9 0 0 0-1.084-.59l-2.245 2.6c-1.514-.74-3.923-2.82-4.405-8.67a1.7 1.7 0 0 0-.806-.44c-.303-.07-.619-.05-.915.04-.499-.31-1.565-.69-2.58.87-.016 1.64.276 3.27.86 4.8-2.108-2.12-4.56-6.12-3.605-12.93-.269-.27-.6-.48-.963-.6-.364-.11-.75-.14-1.127-.08a2.2 2.2 0 0 0-1.162-.23c-.4.04-.783.19-1.101.44 0 0-.31 5.76 1.669 10.4-1.471-2.12-3.037-5.54-3.656-10.93-.47-.09-.95-.09-1.42 0v-.17c-.477-.1-.968-.09-1.444.01-.475.11-.923.31-1.317.6 0 0 1.445 18.08 19.959 19.82l1.11.14.49 3.56c-3.674.32-4.5 1.17-4.5 1.17-2.202 4.46-9.463 6.76-9.463 6.76 2.048 4.04 6.28 1.63 6.28 1.63-.06 13.2-11.132 21.38-19.202 24.27-8.07 2.88-13.618-.25-22.634-.15-2.39-.04-4.731.67-6.71 2.02-7.64 1.43-11.279-2.42-11.279-2.42a4.97 4.97 0 0 0 .396 5.05c1.282 2.13 5.523 1.46 7.648.97a17 17 0 0 0-2.108 8.57c.07 6.26-6.607 7.67-8.319 8.46-.491.23-.916.58-1.231 1.03-.315.44-.51.96-.567 1.5-.774 4.79-5.73 11.14-5.73 11.14l-4.232-.55a10.2 10.2 0 0 0-1.565 4.01c-.233 1.43-.16 2.89.214 4.29 0 0 4.061-.24 6.453-1.65 2.391-1.41 2.013-2.6 4.55-5.26a88 88 0 0 0 5.842-7.15c3.903-.3 7.644-1.7 10.797-4.04-1.867 3.54-7.545 5.51-8.397 6.99-.851 1.49-.404 4.06-.61 7.18-.207 3.12-1.67 4.44-1.807 5.42-.076.75-.053 1.5.069 2.24l-2.581 1.73c.929 5.06 4.301 6.07 4.301 6.07 3.777-2.6 4.517-8.92 4.517-8.92.454-.38.791-.89.972-1.45-.353-3.77 2.22-10.55 2.22-10.55 3.336-.55 6.573-1.6 9.6-3.12 5.3-2.6 8.406-10.4 8.406-10.4a36.5 36.5 0 0 0 18.453.36 31 31 0 0 0 3.665-1.19c-.343.67-.743 1.31-1.196 1.91-.749.86-3.114 1.51-3.114 1.51-4.491.96-5.309 2.24-5.309 2.24 1.059 4.5 4 5.42 4 5.42.62-2.18 4.543-5.02 5.447-4.82s3.647-1.58 3.647-1.58 5.799-7.9 5.73-8.91c-.079-.51-.28-.99-.585-1.4q.569-.6 1.05-1.26c4.62 2.11 10.202.23 11.089.27.886.04.507 1.25.387 2.03-.12.79-2.34 10.58-2.34 10.58l-4.508 3.02c.266 5.8 4.98 6.17 4.98 6.17s4.25-5.84 4.758-6.19c.508-.36 1.428-1.8 1.162-2.21-.267-.4-.104-3.46.8-6.56.903-3.11 4.017-6.07 4.301-7.93.284-1.87.413-3.47-1.032-4.45s-3.175-.3-7.57-.8c-4.397-.51-6.883-4.34-6.883-4.34 5.325-8.45 7.054-21.54 7.054-21.54 3.166-.45 14.255-2.61 14.255-2.61"/></mask><g stroke-miterlimit="10" stroke-width="1.5" mask="url(#a)"><path stroke="url(#b)" d="m90.934 1247.93-48.27 35.41"/><path stroke="url(#c)" d="m72.662 1271.07 74.983 8.49"/><path stroke="url(#d)" d="m90.934 1255.01-23.434 45.8"/><path stroke="url(#e)" d="m5.163 1323.95 45.467 50.51"/><path stroke="url(#f)" d="m45.003 1354.16-17.344-72.23"/><path stroke="url(#g)" d="m42.663 1294.68 51.084 52.4"/><path stroke="url(#h)" d="m115.78 1296.56-81.556 1.89"/><path stroke="url(#i)" d="m87.183 1260.21-30.927 109.06"/><path stroke="url(#j)" d="M107.34 1304.11 15.942 1306"/><path stroke="url(#k)" d="m7.976 1326.31 130.3-18.42"/><path stroke="url(#l)" d="m51.094 1296.56-.465 63.74"/><path stroke="url(#m)" d="m100.775 1310.26-78.27 1.41"/><path stroke="url(#n)" d="m100.157 1262.26-29.999 98.67"/><path stroke="url(#o)" d="m104.062 1297.98-10.315-51.94"/><path stroke="url(#p)" d="m15.478 1330.08 115.769 7.56"/><path stroke="url(#q)" d="m105.465 1313.09-89.049 57.59"/><path stroke="url(#r)" d="m.947 1342.83 85.772 27.85"/><path stroke="url(#s)" d="m55.782 1297.51 2.813 71.76"/><path stroke="url(#t)" d="m115.306 1284.29-80.145 9.44"/><path stroke="url(#u)" d="m22.506 1318.75 120.923 12.28"/><path stroke="url(#v)" d="m75.94 1274.85 41.242 26.91"/><path stroke="url(#w)" d="m104.062 1264.93-91.398 99.62"/><path stroke="url(#x)" d="m16.88 1329.61 33.75 43.44"/></g><path fill="url(#y)" d="M70.923 1250.67c.237 0 .474.02.706.07v.17c.238-.04.48-.07.722-.07.234 0 .468.02.697.07.62 5.39 2.185 8.81 3.656 10.93-1.978-4.69-1.668-10.4-1.668-10.4.322-.25.708-.4 1.114-.44.405-.04.813.04 1.174.23q.237-.06.482-.06c.626.03 1.218.29 1.66.74-.955 6.81 1.497 10.81 3.605 12.93a13.1 13.1 0 0 1-.86-4.8 2 2 0 0 1 1.634-1.14c.324.01.64.11.912.29.173-.07.356-.1.542-.11.445.03.868.2 1.196.51.481 5.86 2.89 7.94 4.404 8.66l2.246-2.6c.398.12.767.32 1.084.59l.361-.41c.445.15.855.39 1.205.71.35.31.634.7.834 1.12l-2.177 2.92.577 4.42c1.583.24 3.093.83 4.422 1.73l3.725 4.44s6.194 1.23 7.441 1.55a8.1 8.1 0 0 1-.559 4.73s-11.09 2.16-14.22 2.6c0 0-1.721 13.09-7.055 21.54 0 0 2.478 3.83 6.882 4.33 4.405.51 6.126-.17 7.571.81s1.333 2.6 1.032 4.44c-.301 1.85-3.441 4.84-4.301 7.93-.86 3.1-1.067 6.16-.8 6.57.266.42-.645 1.86-1.162 2.2-.516.35-4.757 6.2-4.757 6.2s-4.715-.37-4.981-6.17l4.508-3.01s2.22-9.77 2.34-10.57.507-2-.387-2.04c-1.964.39-3.954.64-5.954.73-1.754.04-3.496-.3-5.11-.99-.32.44-.67.86-1.05 1.25.307.41.507.9.586 1.41.069 1.01-5.73 8.9-5.73 8.9s-2.469 1.54-3.493 1.54h-.266c-1.058 0-4.75 2.72-5.343 4.83 0 0-2.942-.92-4-5.42 0 0 .86-1.28 5.308-2.24 0 0 2.366-.64 3.114-1.51.453-.6.853-1.24 1.196-1.91-1.195.48-2.419.87-3.665 1.19-2.73.69-5.537 1.03-8.353 1.02-3.415.02-6.815-.44-10.1-1.38 0 0-3.106 7.84-8.405 10.4a33.6 33.6 0 0 1-9.601 3.12s-2.581 6.78-2.22 10.55a3.13 3.13 0 0 1-1.066 1.45s-.74 6.32-4.517 8.92c0 0-3.338-1.03-4.302-6.07l2.581-1.73a8.5 8.5 0 0 1-.068-2.24c.137-.97 1.608-2.3 1.806-5.42s-.232-5.68.611-7.18c.843-1.49 6.53-3.46 8.397-6.99a20.8 20.8 0 0 1-10.797 4.04 87 87 0 0 1-5.833 7.14c-2.538 2.6-2.16 3.84-4.551 5.26s-6.452 1.67-6.452 1.67c-.37-1.4-.439-2.86-.203-4.29s.771-2.79 1.57-3.99l4.233.54s4.956-6.35 5.73-11.13c.056-.54.251-1.06.567-1.51.315-.44.74-.79 1.23-1.02 1.721-.79 8.389-2.2 8.32-8.46-.08-3 .636-5.97 2.073-8.6-1.272.31-2.573.47-3.88.5-1.583 0-3.088-.34-3.768-1.47a4.966 4.966 0 0 1-.396-5.05s2.581 2.74 7.984 2.74c1.106 0 2.209-.11 3.295-.32a11.64 11.64 0 0 1 6.71-2.02h.43c5.945 0 10.384 1.35 15.107 1.35 2.417.02 4.819-.39 7.098-1.2 8.07-2.85 19.141-11.03 19.201-24.27-.842.45-1.775.7-2.727.72a3.76 3.76 0 0 1-2.131-.63 3.75 3.75 0 0 1-1.422-1.72s7.244-2.3 9.463-6.75c0 0 .86-.87 4.5-1.18l-.49-3.56-1.11-.14c-18.514-1.74-19.985-19.85-19.985-19.85.59-.45 1.315-.69 2.056-.67m0-1.74a4.97 4.97 0 0 0-3.14 1.06l-.705.58.077.91c.418 3.51 1.53 6.91 3.27 9.98 2.58 4.65 7.88 10.4 18.014 11.42l.069.51c-2.41.4-3.399 1.06-3.786 1.47l-.189.19-.12.24c-1.54 3.11-6.608 5.31-8.431 5.89l-1.936.61.93 1.83c.443.98 1.159 1.82 2.06 2.4.902.58 1.952.89 3.023.89q.433-.015.86-.06c-1.341 11.36-11.656 17.99-17.902 20.2a18.9 18.9 0 0 1-6.53 1.1 48 48 0 0 1-6.435-.59 58.6 58.6 0 0 0-8.671-.76h-.448c-2.607-.01-5.164.73-7.364 2.14-.87.16-1.75.23-2.632.24-4.508 0-6.668-2.13-6.754-2.22l-1.54-1.55-1.118 1.85a6.77 6.77 0 0 0-.747 3.49c.068 1.21.46 2.38 1.134 3.38.92 1.52 2.684 2.29 5.24 2.29h1.023a19.7 19.7 0 0 0-.972 6.4c.043 3.83-3.183 5.33-6.203 6.43-.43.15-.808.29-1.11.43a4.86 4.86 0 0 0-1.9 1.58 4.9 4.9 0 0 0-.887 2.31c-.542 3.12-3.26 7.38-4.8 9.53l-3.235-.41-1.101-.14-.585.94a12 12 0 0 0-1.523 9.79l.439 1.22 1.29-.08c.456 0 4.543-.31 7.21-1.9a7.9 7.9 0 0 0 3.01-3.06c.54-.9 1.178-1.73 1.902-2.48a80 80 0 0 0 5.54-6.72h.344c-.14.15-.261.32-.361.5-.8 1.4-.792 3.12-.783 5.13 0 .86 0 1.81-.052 2.79a7.9 7.9 0 0 1-1.152 3.44 5.1 5.1 0 0 0-.689 1.74 8 8 0 0 0 0 1.63l-1.72 1.16-.93.63.207 1.11c1.101 6.07 5.265 7.38 5.446 7.44l.791.25.689-.48c3.664-2.53 4.852-7.8 5.161-9.53.495-.54.85-1.19 1.033-1.9l.06-.26v-.27c-.224-2.36 1.006-6.58 1.79-8.84a37.4 37.4 0 0 0 9.067-3.1c4.439-2.17 7.398-7.4 8.603-9.94 2.995.7 6.06 1.06 9.136 1.06h1.72c-.305.21-.572.47-.79.77l-.397.62.164.71c1.273 5.4 5.007 6.63 5.162 6.68l1.72.53.482-1.73c.335-1.2 2.813-3.22 3.76-3.56h.197c1.317 0 3.321-1.12 4.396-1.79l.284-.18.198-.27c6.168-8.4 6.108-9.43 6.022-10.05v-.29c1.272.33 2.578.48 3.889.47 1.554-.02 3.103-.18 4.628-.48-.232 1.15-1.333 6.06-2.125 9.53l-3.931 2.6-.86.54v.98c.266 5.8 4.413 7.66 6.572 7.8l.955.07.568-.78c1.79-2.46 3.974-5.37 4.456-5.87.774-.63 2.323-2.6 1.721-4.17.019-1.85.309-3.69.86-5.45.567-1.5 1.35-2.91 2.323-4.19.943-1.16 1.639-2.5 2.047-3.95.258-1.57.74-4.47-1.763-6.17-1.282-.87-2.581-.87-4.302-.87-1.36.02-2.718-.05-4.069-.2a8.27 8.27 0 0 1-4.973-2.76c4.078-7.1 5.902-16.46 6.461-19.89 4.078-.68 12.638-2.35 13.042-2.42l.8-.16.388-.71a9.76 9.76 0 0 0 .731-5.9l-.215-1.08-1.05-.26c-1.058-.27-5.342-1.14-6.942-1.46l-3.338-3.98-.19-.22-.258-.15-.206-.13a12.1 12.1 0 0 0-3.536-1.56l-.318-2.49 1.72-2.35.602-.82-.404-.93c-.3-.66-.737-1.26-1.281-1.74a5.1 5.1 0 0 0-1.876-1.06l-1.041-.3-.163.19-.241-.07-1.041-.29-.714.86-1.145 1.56c-.998-.97-2.09-2.85-2.391-6.53l-.06-.64-.456-.45a3.63 3.63 0 0 0-2.4-1.05h-.345a3.28 3.28 0 0 0-1.909-.12c-.634.16-1.207.5-1.644.99-.442-2-.51-4.05-.198-6.07l.12-.87-.567-.6a4.12 4.12 0 0 0-2.916-1.29h-.276a4 4 0 0 0-1.178-.18 3.7 3.7 0 0 0-1.72.4v-.14l-1.197-.26a5.5 5.5 0 0 0-1.075-.11h-.095l-.284-.07a4.5 4.5 0 0 0-1.092-.11z"/><path fill="url(#z)" d="M69.977 1249.65a4.82 4.82 0 0 1-4.451-3 4.89 4.89 0 0 1 1.044-5.29 4.8 4.8 0 0 1 2.467-1.32 4.74 4.74 0 0 1 2.783.27c.88.37 1.633.99 2.163 1.79s.811 1.74.811 2.7a4.88 4.88 0 0 1-1.41 3.43 4.8 4.8 0 0 1-3.407 1.42m0-7.97a3.11 3.11 0 0 0-2.862 1.93c-.234.57-.295 1.2-.175 1.81.12.6.416 1.16.85 1.59.434.44.987.74 1.588.85a3.05 3.05 0 0 0 1.79-.18 3 3 0 0 0 1.388-1.15c.34-.51.52-1.12.518-1.73a3.12 3.12 0 0 0-3.097-3.1z"/><path fill="url(#A)" d="M71 0h-1v1240.93h1z"/><path fill="url(#B)" d="m68.988 790.038.428-23.569 16.78-16.361-.409 23.57zm4.283-21.899-.136 12.491 8.857-8.642.233-12.472z"/><path fill="url(#C)" d="m93.691 791.787-23.359-.315 16.8-16.38 23.358.334zm-13.86-4.125 12.303.177 8.857-8.623-12.283-.176z"/><path fill="url(#D)" d="m109.868 810.72-23.262-.392-16.235-16.931 23.36.393zm-21.588-4.301 12.244.216-8.546-8.937-12.283-.216z"/><path fill="url(#E)" d="M84.815 835.213 68.58 818.282l.39-23.569 16.195 16.93zM72.493 816.73l8.584 8.937.195-12.374-8.565-8.936z"/><path fill="url(#F)" d="m49.776 834.643.429-23.569 16.78-16.381-.429 23.569zm4.283-21.841-.214 12.413 8.857-8.642.214-12.413z"/><path fill="url(#G)" d="m48.842 809.679-23.36-.432 16.78-16.341 23.36.373zm-13.88-4.183 12.342.216 8.876-8.662-12.36-.196z"/><path fill="url(#H)" d="m65.66 791.394-23.36-.472-16.215-16.93 23.36.471zm-21.725-4.38 12.303.255-8.41-8.917-12.302-.236z"/><path fill="url(#I)" d="m67.1 790.038-16.214-16.93.311-23.569 16.235 16.93zm-12.302-18.482 8.604 8.858.156-12.432-8.545-8.917z"/><defs><linearGradient id="b" x1="42.285" x2="91.313" y1="1265.64" y2="1265.64" gradientUnits="userSpaceOnUse"><stop offset=".02" stop-color="#CCA566"/><stop offset=".06" stop-color="#D3AF75"/><stop offset=".14" stop-color="#E5C99C"/><stop offset=".23" stop-color="#FFEED4"/><stop offset=".28" stop-color="#FDEBD0"/><stop offset=".33" stop-color="#F7E3C3"/><stop offset=".38" stop-color="#EED5AF"/><stop offset=".44" stop-color="#E0C292"/><stop offset=".49" stop-color="#CFA96D"/><stop offset=".5" stop-color="#CCA566"/><stop offset=".8" stop-color="#FFE4BA"/><stop offset="1" stop-color="#7D5412"/></linearGradient><linearGradient id="c" x1="72.585" x2="147.723" y1="1275.32" y2="1275.32" gradientUnits="userSpaceOnUse"><stop offset=".02" stop-color="#CCA566"/><stop offset=".06" stop-color="#D3AF75"/><stop offset=".14" stop-color="#E5C99C"/><stop offset=".23" stop-color="#FFEED4"/><stop offset=".28" stop-color="#FDEBD0"/><stop offset=".33" stop-color="#F7E3C3"/><stop offset=".38" stop-color="#EED5AF"/><stop offset=".44" stop-color="#E0C292"/><stop offset=".49" stop-color="#CFA96D"/><stop offset=".5" stop-color="#CCA566"/><stop offset=".8" stop-color="#FFE4BA"/><stop offset="1" stop-color="#7D5412"/></linearGradient><linearGradient id="d" x1="66.932" x2="91.511" y1="1277.92" y2="1277.92" gradientUnits="userSpaceOnUse"><stop offset=".02" stop-color="#CCA566"/><stop offset=".06" stop-color="#D3AF75"/><stop offset=".14" stop-color="#E5C99C"/><stop offset=".23" stop-color="#FFEED4"/><stop offset=".28" stop-color="#FDEBD0"/><stop offset=".33" stop-color="#F7E3C3"/><stop offset=".38" stop-color="#EED5AF"/><stop offset=".44" stop-color="#E0C292"/><stop offset=".49" stop-color="#CFA96D"/><stop offset=".5" stop-color="#CCA566"/><stop offset=".8" stop-color="#FFE4BA"/><stop offset="1" stop-color="#7D5412"/></linearGradient><linearGradient id="e" x1="4.69" x2="51.111" y1="1349.2" y2="1349.2" gradientUnits="userSpaceOnUse"><stop offset=".02" stop-color="#CCA566"/><stop offset=".06" stop-color="#D3AF75"/><stop offset=".14" stop-color="#E5C99C"/><stop offset=".23" stop-color="#FFEED4"/><stop offset=".28" stop-color="#FDEBD0"/><stop offset=".33" stop-color="#F7E3C3"/><stop offset=".38" stop-color="#EED5AF"/><stop offset=".44" stop-color="#E0C292"/><stop offset=".49" stop-color="#CFA96D"/><stop offset=".5" stop-color="#CCA566"/><stop offset=".8" stop-color="#FFE4BA"/><stop offset="1" stop-color="#7D5412"/></linearGradient><linearGradient id="f" x1="27.031" x2="45.631" y1="1318.05" y2="1318.05" gradientUnits="userSpaceOnUse"><stop offset=".02" stop-color="#CCA566"/><stop offset=".06" stop-color="#D3AF75"/><stop offset=".14" stop-color="#E5C99C"/><stop offset=".23" stop-color="#FFEED4"/><stop offset=".28" stop-color="#FDEBD0"/><stop offset=".33" stop-color="#F7E3C3"/><stop offset=".38" stop-color="#EED5AF"/><stop offset=".44" stop-color="#E0C292"/><stop offset=".49" stop-color="#CFA96D"/><stop offset=".5" stop-color="#CCA566"/><stop offset=".8" stop-color="#FFE4BA"/><stop offset="1" stop-color="#7D5412"/></linearGradient><linearGradient id="g" x1="42.199" x2="94.212" y1="1320.88" y2="1320.88" gradientUnits="userSpaceOnUse"><stop offset=".02" stop-color="#CCA566"/><stop offset=".06" stop-color="#D3AF75"/><stop offset=".14" stop-color="#E5C99C"/><stop offset=".23" stop-color="#FFEED4"/><stop offset=".28" stop-color="#FDEBD0"/><stop offset=".33" stop-color="#F7E3C3"/><stop offset=".38" stop-color="#EED5AF"/><stop offset=".44" stop-color="#E0C292"/><stop offset=".49" stop-color="#CFA96D"/><stop offset=".5" stop-color="#CCA566"/><stop offset=".8" stop-color="#FFE4BA"/><stop offset="1" stop-color="#7D5412"/></linearGradient><linearGradient id="h" x1="34.206" x2="115.788" y1="1297.51" y2="1297.51" gradientUnits="userSpaceOnUse"><stop offset=".02" stop-color="#CCA566"/><stop offset=".06" stop-color="#D3AF75"/><stop offset=".14" stop-color="#E5C99C"/><stop offset=".23" stop-color="#FFEED4"/><stop offset=".28" stop-color="#FDEBD0"/><stop offset=".33" stop-color="#F7E3C3"/><stop offset=".38" stop-color="#EED5AF"/><stop offset=".44" stop-color="#E0C292"/><stop offset=".49" stop-color="#CFA96D"/><stop offset=".5" stop-color="#CCA566"/><stop offset=".8" stop-color="#FFE4BA"/><stop offset="1" stop-color="#7D5412"/></linearGradient><linearGradient id="i" x1="55.636" x2="87.811" y1="1314.74" y2="1314.74" gradientUnits="userSpaceOnUse"><stop offset=".02" stop-color="#CCA566"/><stop offset=".06" stop-color="#D3AF75"/><stop offset=".14" stop-color="#E5C99C"/><stop offset=".23" stop-color="#FFEED4"/><stop offset=".28" stop-color="#FDEBD0"/><stop offset=".33" stop-color="#F7E3C3"/><stop offset=".38" stop-color="#EED5AF"/><stop offset=".44" stop-color="#E0C292"/><stop offset=".49" stop-color="#CFA96D"/><stop offset=".5" stop-color="#CCA566"/><stop offset=".8" stop-color="#FFE4BA"/><stop offset="1" stop-color="#7D5412"/></linearGradient><linearGradient id="j" x1="15.934" x2="107.357" y1="1305.06" y2="1305.06" gradientUnits="userSpaceOnUse"><stop offset=".02" stop-color="#CCA566"/><stop offset=".06" stop-color="#D3AF75"/><stop offset=".14" stop-color="#E5C99C"/><stop offset=".23" stop-color="#FFEED4"/><stop offset=".28" stop-color="#FDEBD0"/><stop offset=".33" stop-color="#F7E3C3"/><stop offset=".38" stop-color="#EED5AF"/><stop offset=".44" stop-color="#E0C292"/><stop offset=".49" stop-color="#CFA96D"/><stop offset=".5" stop-color="#CCA566"/><stop offset=".8" stop-color="#FFE4BA"/><stop offset="1" stop-color="#7D5412"/></linearGradient><linearGradient id="k" x1="7.89" x2="138.362" y1="1317.1" y2="1317.1" gradientUnits="userSpaceOnUse"><stop offset=".02" stop-color="#CCA566"/><stop offset=".06" stop-color="#D3AF75"/><stop offset=".14" stop-color="#E5C99C"/><stop offset=".23" stop-color="#FFEED4"/><stop offset=".28" stop-color="#FDEBD0"/><stop offset=".33" stop-color="#F7E3C3"/><stop offset=".38" stop-color="#EED5AF"/><stop offset=".44" stop-color="#E0C292"/><stop offset=".49" stop-color="#CFA96D"/><stop offset=".5" stop-color="#CCA566"/><stop offset=".8" stop-color="#FFE4BA"/><stop offset="1" stop-color="#7D5412"/></linearGradient><linearGradient id="l" x1="49.984" x2="51.739" y1="1328.43" y2="1328.43" gradientUnits="userSpaceOnUse"><stop offset=".02" stop-color="#CCA566"/><stop offset=".06" stop-color="#D3AF75"/><stop offset=".14" stop-color="#E5C99C"/><stop offset=".23" stop-color="#FFEED4"/><stop offset=".28" stop-color="#FDEBD0"/><stop offset=".33" stop-color="#F7E3C3"/><stop offset=".38" stop-color="#EED5AF"/><stop offset=".44" stop-color="#E0C292"/><stop offset=".49" stop-color="#CFA96D"/><stop offset=".5" stop-color="#CCA566"/><stop offset=".8" stop-color="#FFE4BA"/><stop offset="1" stop-color="#7D5412"/></linearGradient><linearGradient id="m" x1="22.497" x2="100.793" y1="1310.96" y2="1310.96" gradientUnits="userSpaceOnUse"><stop offset=".02" stop-color="#CCA566"/><stop offset=".06" stop-color="#D3AF75"/><stop offset=".14" stop-color="#E5C99C"/><stop offset=".23" stop-color="#FFEED4"/><stop offset=".28" stop-color="#FDEBD0"/><stop offset=".33" stop-color="#F7E3C3"/><stop offset=".38" stop-color="#EED5AF"/><stop offset=".44" stop-color="#E0C292"/><stop offset=".49" stop-color="#CFA96D"/><stop offset=".5" stop-color="#CCA566"/><stop offset=".8" stop-color="#FFE4BA"/><stop offset="1" stop-color="#7D5412"/></linearGradient><linearGradient id="n" x1="69.539" x2="100.767" y1="1311.59" y2="1311.59" gradientUnits="userSpaceOnUse"><stop offset=".02" stop-color="#CCA566"/><stop offset=".06" stop-color="#D3AF75"/><stop offset=".14" stop-color="#E5C99C"/><stop offset=".23" stop-color="#FFEED4"/><stop offset=".28" stop-color="#FDEBD0"/><stop offset=".33" stop-color="#F7E3C3"/><stop offset=".38" stop-color="#EED5AF"/><stop offset=".44" stop-color="#E0C292"/><stop offset=".49" stop-color="#CFA96D"/><stop offset=".5" stop-color="#CCA566"/><stop offset=".8" stop-color="#FFE4BA"/><stop offset="1" stop-color="#7D5412"/></linearGradient><linearGradient id="o" x1="93.119" x2="104.69" y1="1272.01" y2="1272.01" gradientUnits="userSpaceOnUse"><stop offset=".02" stop-color="#CCA566"/><stop offset=".06" stop-color="#D3AF75"/><stop offset=".14" stop-color="#E5C99C"/><stop offset=".23" stop-color="#FFEED4"/><stop offset=".28" stop-color="#FDEBD0"/><stop offset=".33" stop-color="#F7E3C3"/><stop offset=".38" stop-color="#EED5AF"/><stop offset=".44" stop-color="#E0C292"/><stop offset=".49" stop-color="#CFA96D"/><stop offset=".5" stop-color="#CCA566"/><stop offset=".8" stop-color="#FFE4BA"/><stop offset="1" stop-color="#7D5412"/></linearGradient><linearGradient id="p" x1="15.434" x2="131.282" y1="1333.86" y2="1333.86" gradientUnits="userSpaceOnUse"><stop offset=".02" stop-color="#CCA566"/><stop offset=".06" stop-color="#D3AF75"/><stop offset=".14" stop-color="#E5C99C"/><stop offset=".23" stop-color="#FFEED4"/><stop offset=".28" stop-color="#FDEBD0"/><stop offset=".33" stop-color="#F7E3C3"/><stop offset=".38" stop-color="#EED5AF"/><stop offset=".44" stop-color="#E0C292"/><stop offset=".49" stop-color="#CFA96D"/><stop offset=".5" stop-color="#CCA566"/><stop offset=".8" stop-color="#FFE4BA"/><stop offset="1" stop-color="#7D5412"/></linearGradient><linearGradient id="q" x1="16.063" x2="105.818" y1="1341.89" y2="1341.89" gradientUnits="userSpaceOnUse"><stop offset=".02" stop-color="#CCA566"/><stop offset=".06" stop-color="#D3AF75"/><stop offset=".14" stop-color="#E5C99C"/><stop offset=".23" stop-color="#FFEED4"/><stop offset=".28" stop-color="#FDEBD0"/><stop offset=".33" stop-color="#F7E3C3"/><stop offset=".38" stop-color="#EED5AF"/><stop offset=".44" stop-color="#E0C292"/><stop offset=".49" stop-color="#CFA96D"/><stop offset=".5" stop-color="#CCA566"/><stop offset=".8" stop-color="#FFE4BA"/><stop offset="1" stop-color="#7D5412"/></linearGradient><linearGradient id="r" x1=".749" x2="86.916" y1="1356.76" y2="1356.76" gradientUnits="userSpaceOnUse"><stop offset=".02" stop-color="#CCA566"/><stop offset=".06" stop-color="#D3AF75"/><stop offset=".14" stop-color="#E5C99C"/><stop offset=".23" stop-color="#FFEED4"/><stop offset=".28" stop-color="#FDEBD0"/><stop offset=".33" stop-color="#F7E3C3"/><stop offset=".38" stop-color="#EED5AF"/><stop offset=".44" stop-color="#E0C292"/><stop offset=".49" stop-color="#CFA96D"/><stop offset=".5" stop-color="#CCA566"/><stop offset=".8" stop-color="#FFE4BA"/><stop offset="1" stop-color="#7D5412"/></linearGradient><linearGradient id="s" x1="55.137" x2="59.241" y1="1333.39" y2="1333.39" gradientUnits="userSpaceOnUse"><stop offset=".02" stop-color="#CCA566"/><stop offset=".06" stop-color="#D3AF75"/><stop offset=".14" stop-color="#E5C99C"/><stop offset=".23" stop-color="#FFEED4"/><stop offset=".28" stop-color="#FDEBD0"/><stop offset=".33" stop-color="#F7E3C3"/><stop offset=".38" stop-color="#EED5AF"/><stop offset=".44" stop-color="#E0C292"/><stop offset=".49" stop-color="#CFA96D"/><stop offset=".5" stop-color="#CCA566"/><stop offset=".8" stop-color="#FFE4BA"/><stop offset="1" stop-color="#7D5412"/></linearGradient><linearGradient id="t" x1="35.084" x2="115.384" y1="1289.01" y2="1289.01" gradientUnits="userSpaceOnUse"><stop offset=".02" stop-color="#CCA566"/><stop offset=".06" stop-color="#D3AF75"/><stop offset=".14" stop-color="#E5C99C"/><stop offset=".23" stop-color="#FFEED4"/><stop offset=".28" stop-color="#FDEBD0"/><stop offset=".33" stop-color="#F7E3C3"/><stop offset=".38" stop-color="#EED5AF"/><stop offset=".44" stop-color="#E0C292"/><stop offset=".49" stop-color="#CFA96D"/><stop offset=".5" stop-color="#CCA566"/><stop offset=".8" stop-color="#FFE4BA"/><stop offset="1" stop-color="#7D5412"/></linearGradient><linearGradient id="u" x1="22.446" x2="143.498" y1="1324.89" y2="1324.89" gradientUnits="userSpaceOnUse"><stop offset=".02" stop-color="#CCA566"/><stop offset=".06" stop-color="#D3AF75"/><stop offset=".14" stop-color="#E5C99C"/><stop offset=".23" stop-color="#FFEED4"/><stop offset=".28" stop-color="#FDEBD0"/><stop offset=".33" stop-color="#F7E3C3"/><stop offset=".38" stop-color="#EED5AF"/><stop offset=".44" stop-color="#E0C292"/><stop offset=".49" stop-color="#CFA96D"/><stop offset=".5" stop-color="#CCA566"/><stop offset=".8" stop-color="#FFE4BA"/><stop offset="1" stop-color="#7D5412"/></linearGradient><linearGradient id="v" x1="75.587" x2="117.535" y1="1288.3" y2="1288.3" gradientUnits="userSpaceOnUse"><stop offset=".02" stop-color="#CCA566"/><stop offset=".06" stop-color="#D3AF75"/><stop offset=".14" stop-color="#E5C99C"/><stop offset=".23" stop-color="#FFEED4"/><stop offset=".28" stop-color="#FDEBD0"/><stop offset=".33" stop-color="#F7E3C3"/><stop offset=".38" stop-color="#EED5AF"/><stop offset=".44" stop-color="#E0C292"/><stop offset=".49" stop-color="#CFA96D"/><stop offset=".5" stop-color="#CCA566"/><stop offset=".8" stop-color="#FFE4BA"/><stop offset="1" stop-color="#7D5412"/></linearGradient><linearGradient id="w" x1="12.191" x2="104.535" y1="1314.74" y2="1314.74" gradientUnits="userSpaceOnUse"><stop offset=".02" stop-color="#CCA566"/><stop offset=".06" stop-color="#D3AF75"/><stop offset=".14" stop-color="#E5C99C"/><stop offset=".23" stop-color="#FFEED4"/><stop offset=".28" stop-color="#FDEBD0"/><stop offset=".33" stop-color="#F7E3C3"/><stop offset=".38" stop-color="#EED5AF"/><stop offset=".44" stop-color="#E0C292"/><stop offset=".49" stop-color="#CFA96D"/><stop offset=".5" stop-color="#CCA566"/><stop offset=".8" stop-color="#FFE4BA"/><stop offset="1" stop-color="#7D5412"/></linearGradient><linearGradient id="x" x1="16.372" x2="51.137" y1="1351.33" y2="1351.33" gradientUnits="userSpaceOnUse"><stop offset=".02" stop-color="#CCA566"/><stop offset=".06" stop-color="#D3AF75"/><stop offset=".14" stop-color="#E5C99C"/><stop offset=".23" stop-color="#FFEED4"/><stop offset=".28" stop-color="#FDEBD0"/><stop offset=".33" stop-color="#F7E3C3"/><stop offset=".38" stop-color="#EED5AF"/><stop offset=".44" stop-color="#E0C292"/><stop offset=".49" stop-color="#CFA96D"/><stop offset=".5" stop-color="#CCA566"/><stop offset=".8" stop-color="#FFE4BA"/><stop offset="1" stop-color="#7D5412"/></linearGradient><linearGradient id="y" x1="58.914" x2="58.914" y1="1247.75" y2="1363.37" gradientUnits="userSpaceOnUse"><stop offset=".02" stop-color="#CCA566"/><stop offset=".06" stop-color="#D3AF75"/><stop offset=".14" stop-color="#E5C99C"/><stop offset=".23" stop-color="#FFEED4"/><stop offset=".28" stop-color="#FDEBD0"/><stop offset=".33" stop-color="#F7E3C3"/><stop offset=".38" stop-color="#EED5AF"/><stop offset=".44" stop-color="#E0C292"/><stop offset=".49" stop-color="#CFA96D"/><stop offset=".5" stop-color="#CCA566"/><stop offset=".8" stop-color="#FFE4BA"/><stop offset="1" stop-color="#7D5412"/></linearGradient><linearGradient id="z" x1="69.977" x2="69.977" y1="1124.99" y2="1303.51" gradientUnits="userSpaceOnUse"><stop offset=".02" stop-color="#CCA566"/><stop offset=".06" stop-color="#D3AF75"/><stop offset=".14" stop-color="#E5C99C"/><stop offset=".23" stop-color="#FFEED4"/><stop offset=".28" stop-color="#FDEBD0"/><stop offset=".33" stop-color="#F7E3C3"/><stop offset=".38" stop-color="#EED5AF"/><stop offset=".44" stop-color="#E0C292"/><stop offset=".49" stop-color="#CFA96D"/><stop offset=".5" stop-color="#CCA566"/><stop offset=".8" stop-color="#FFE4BA"/><stop offset="1" stop-color="#7D5412"/></linearGradient><linearGradient id="A" x1="70.5" x2="70.5" y1="-946.531" y2="2424.75" gradientUnits="userSpaceOnUse"><stop offset=".02" stop-color="#CCA566"/><stop offset=".06" stop-color="#D3AF75"/><stop offset=".14" stop-color="#E5C99C"/><stop offset=".23" stop-color="#FFEED4"/><stop offset=".28" stop-color="#FDEBD0"/><stop offset=".33" stop-color="#F7E3C3"/><stop offset=".38" stop-color="#EED5AF"/><stop offset=".44" stop-color="#E0C292"/><stop offset=".49" stop-color="#CFA96D"/><stop offset=".5" stop-color="#CCA566"/><stop offset=".8" stop-color="#FFE4BA"/><stop offset="1" stop-color="#7D5412"/></linearGradient><linearGradient id="B" x1="77.592" x2="77.592" y1="755.804" y2="857.957" gradientUnits="userSpaceOnUse"><stop offset=".02" stop-color="#CCA566"/><stop offset=".06" stop-color="#D3AF75"/><stop offset=".14" stop-color="#E5C99C"/><stop offset=".23" stop-color="#FFEED4"/><stop offset=".28" stop-color="#FDEBD0"/><stop offset=".33" stop-color="#F7E3C3"/><stop offset=".38" stop-color="#EED5AF"/><stop offset=".44" stop-color="#E0C292"/><stop offset=".49" stop-color="#CFA96D"/><stop offset=".5" stop-color="#CCA566"/><stop offset=".8" stop-color="#FFE4BA"/><stop offset="1" stop-color="#7D5412"/></linearGradient><linearGradient id="C" x1="90.401" x2="90.401" y1="755.804" y2="857.957" gradientUnits="userSpaceOnUse"><stop offset=".02" stop-color="#CCA566"/><stop offset=".06" stop-color="#D3AF75"/><stop offset=".14" stop-color="#E5C99C"/><stop offset=".23" stop-color="#FFEED4"/><stop offset=".28" stop-color="#FDEBD0"/><stop offset=".33" stop-color="#F7E3C3"/><stop offset=".38" stop-color="#EED5AF"/><stop offset=".44" stop-color="#E0C292"/><stop offset=".49" stop-color="#CFA96D"/><stop offset=".5" stop-color="#CCA566"/><stop offset=".8" stop-color="#FFE4BA"/><stop offset="1" stop-color="#7D5412"/></linearGradient><linearGradient id="D" x1="90.11" x2="90.11" y1="755.804" y2="857.957" gradientUnits="userSpaceOnUse"><stop offset=".02" stop-color="#CCA566"/><stop offset=".06" stop-color="#D3AF75"/><stop offset=".14" stop-color="#E5C99C"/><stop offset=".23" stop-color="#FFEED4"/><stop offset=".28" stop-color="#FDEBD0"/><stop offset=".33" stop-color="#F7E3C3"/><stop offset=".38" stop-color="#EED5AF"/><stop offset=".44" stop-color="#E0C292"/><stop offset=".49" stop-color="#CFA96D"/><stop offset=".5" stop-color="#CCA566"/><stop offset=".8" stop-color="#FFE4BA"/><stop offset="1" stop-color="#7D5412"/></linearGradient><linearGradient id="E" x1="76.853" x2="76.853" y1="755.804" y2="857.957" gradientUnits="userSpaceOnUse"><stop offset=".02" stop-color="#CCA566"/><stop offset=".06" stop-color="#D3AF75"/><stop offset=".14" stop-color="#E5C99C"/><stop offset=".23" stop-color="#FFEED4"/><stop offset=".28" stop-color="#FDEBD0"/><stop offset=".33" stop-color="#F7E3C3"/><stop offset=".38" stop-color="#EED5AF"/><stop offset=".44" stop-color="#E0C292"/><stop offset=".49" stop-color="#CFA96D"/><stop offset=".5" stop-color="#CCA566"/><stop offset=".8" stop-color="#FFE4BA"/><stop offset="1" stop-color="#7D5412"/></linearGradient><linearGradient id="F" x1="58.38" x2="58.38" y1="755.804" y2="857.957" gradientUnits="userSpaceOnUse"><stop offset=".02" stop-color="#CCA566"/><stop offset=".06" stop-color="#D3AF75"/><stop offset=".14" stop-color="#E5C99C"/><stop offset=".23" stop-color="#FFEED4"/><stop offset=".28" stop-color="#FDEBD0"/><stop offset=".33" stop-color="#F7E3C3"/><stop offset=".38" stop-color="#EED5AF"/><stop offset=".44" stop-color="#E0C292"/><stop offset=".49" stop-color="#CFA96D"/><stop offset=".5" stop-color="#CCA566"/><stop offset=".8" stop-color="#FFE4BA"/><stop offset="1" stop-color="#7D5412"/></linearGradient><linearGradient id="G" x1="45.571" x2="45.571" y1="755.804" y2="857.957" gradientUnits="userSpaceOnUse"><stop offset=".02" stop-color="#CCA566"/><stop offset=".06" stop-color="#D3AF75"/><stop offset=".14" stop-color="#E5C99C"/><stop offset=".23" stop-color="#FFEED4"/><stop offset=".28" stop-color="#FDEBD0"/><stop offset=".33" stop-color="#F7E3C3"/><stop offset=".38" stop-color="#EED5AF"/><stop offset=".44" stop-color="#E0C292"/><stop offset=".49" stop-color="#CFA96D"/><stop offset=".5" stop-color="#CCA566"/><stop offset=".8" stop-color="#FFE4BA"/><stop offset="1" stop-color="#7D5412"/></linearGradient><linearGradient id="H" x1="45.882" x2="45.882" y1="755.804" y2="857.957" gradientUnits="userSpaceOnUse"><stop offset=".02" stop-color="#CCA566"/><stop offset=".06" stop-color="#D3AF75"/><stop offset=".14" stop-color="#E5C99C"/><stop offset=".23" stop-color="#FFEED4"/><stop offset=".28" stop-color="#FDEBD0"/><stop offset=".33" stop-color="#F7E3C3"/><stop offset=".38" stop-color="#EED5AF"/><stop offset=".44" stop-color="#E0C292"/><stop offset=".49" stop-color="#CFA96D"/><stop offset=".5" stop-color="#CCA566"/><stop offset=".8" stop-color="#FFE4BA"/><stop offset="1" stop-color="#7D5412"/></linearGradient><linearGradient id="I" x1="59.159" x2="59.159" y1="755.804" y2="857.957" gradientUnits="userSpaceOnUse"><stop offset=".02" stop-color="#CCA566"/><stop offset=".06" stop-color="#D3AF75"/><stop offset=".14" stop-color="#E5C99C"/><stop offset=".23" stop-color="#FFEED4"/><stop offset=".28" stop-color="#FDEBD0"/><stop offset=".33" stop-color="#F7E3C3"/><stop offset=".38" stop-color="#EED5AF"/><stop offset=".44" stop-color="#E0C292"/><stop offset=".49" stop-color="#CFA96D"/><stop offset=".5" stop-color="#CCA566"/><stop offset=".8" stop-color="#FFE4BA"/><stop offset="1" stop-color="#7D5412"/></linearGradient></defs></svg>