<svg xmlns="http://www.w3.org/2000/svg" width="73" height="576" fill="none"><path fill="url(#a)" d="M41.787 517.619h-1.505v-7.438h-6.599v7.438H32.18v-8.96h9.608z"/><path fill="url(#b)" d="M37.013 510.029a2.64 2.64 0 0 1-1.484-.453 2.7 2.7 0 0 1-.985-1.211 2.73 2.73 0 0 1 .577-2.943 2.638 2.638 0 0 1 2.91-.584c.488.205.904.551 1.197.996a2.72 2.72 0 0 1-.334 3.405 2.65 2.65 0 0 1-1.881.79m0-3.871a1.16 1.16 0 0 0-1.079.723 1.19 1.19 0 0 0 .25 1.285 1.16 1.16 0 0 0 1.268.257 1.17 1.17 0 0 0 .719-1.088c0-.311-.122-.61-.339-.83a1.16 1.16 0 0 0-.82-.347"/><path fill="url(#c)" d="M38 0h-1v505h1z"/><mask id="d" width="58" height="59" x="8" y="517" maskUnits="userSpaceOnUse" style="mask-type:luminance"><path fill="#fff" d="M36.827 575.006c15.788 0 28.588-12.949 28.588-28.922s-12.8-28.922-28.589-28.922-28.588 12.949-28.588 28.922 12.8 28.922 28.589 28.922"/></mask><g stroke-miterlimit="10" stroke-width="1.5" mask="url(#d)"><path stroke="url(#e)" d="m14.397 516.558 58.826 17.609"/><path stroke="url(#f)" d="M37.804 511.698.29 557.245"/><path stroke="url(#g)" d="m8.69 526.273 57.326 55.567"/><path stroke="url(#h)" d="m16.497 575.463 51.62-64.977"/><path stroke="url(#i)" d="m21.597 520.81 58.525 45.541"/><path stroke="url(#j)" d="m45.607 515.95-33.011 51.923"/><path stroke="url(#k)" d="m5.991 559.066 81.337-33.706"/><path stroke="url(#l)" d="m53.114 514.433-15.008 79.552"/><path stroke="url(#m)" d="m61.518 571.82-32.119-63.46"/><path stroke="url(#n)" d="m16.497 524.452 46.22 57.692"/><path stroke="url(#o)" d="m29.1 580.323 50.426-57.088"/><path stroke="url(#p)" d="m5.69 552.689 81.939-29.754"/><path stroke="url(#q)" d="m49.213 516.863-26.116 69.228"/><path stroke="url(#r)" d="M53.113 579.41 1.79 535.989"/><path stroke="url(#s)" d="m8.093 566.96 68.128-26.111"/><path stroke="url(#t)" d="m26.702 513.824 11.403 74.697"/><path stroke="url(#u)" d="M68.72 551.477 5.39 535.385"/></g><path fill="url(#v)" d="M36.977 575.767a29.1 29.1 0 0 1-16.3-5.002A29.6 29.6 0 0 1 9.87 557.443a30 30 0 0 1-1.67-17.15 29.8 29.8 0 0 1 8.03-15.198 29.24 29.24 0 0 1 15.023-8.124 29.03 29.03 0 0 1 16.952 1.69 29.4 29.4 0 0 1 13.168 10.932 29.93 29.93 0 0 1 4.944 16.491c-.007 7.87-3.101 15.415-8.602 20.98-5.5 5.565-12.959 8.695-20.738 8.703m0-57.834a27.6 27.6 0 0 0-15.465 4.746 28.1 28.1 0 0 0-10.252 12.639 28.46 28.46 0 0 0-1.584 16.27 28.26 28.26 0 0 0 7.618 14.419 27.73 27.73 0 0 0 14.253 7.707 27.54 27.54 0 0 0 16.083-1.602 27.9 27.9 0 0 0 12.492-10.372 28.4 28.4 0 0 0 4.691-15.646c-.007-7.467-2.941-14.627-8.16-19.909-5.218-5.281-12.294-8.253-19.676-8.262z"/><defs><linearGradient id="a" x1="36.983" x2="36.983" y1="450.12" y2="517.446" gradientUnits="userSpaceOnUse"><stop offset=".02" stop-color="#CCA566"/><stop offset=".06" stop-color="#D3AF75"/><stop offset=".14" stop-color="#E5C99C"/><stop offset=".23" stop-color="#FFEED4"/><stop offset=".28" stop-color="#FDEBD0"/><stop offset=".33" stop-color="#F7E3C3"/><stop offset=".38" stop-color="#EED5AF"/><stop offset=".44" stop-color="#E0C292"/><stop offset=".49" stop-color="#CFA96D"/><stop offset=".5" stop-color="#CCA566"/><stop offset=".8" stop-color="#FFE4BA"/><stop offset="1" stop-color="#7D5412"/></linearGradient><linearGradient id="b" x1="37.018" x2="37.018" y1="450.12" y2="517.446" gradientUnits="userSpaceOnUse"><stop offset=".02" stop-color="#CCA566"/><stop offset=".06" stop-color="#D3AF75"/><stop offset=".14" stop-color="#E5C99C"/><stop offset=".23" stop-color="#FFEED4"/><stop offset=".28" stop-color="#FDEBD0"/><stop offset=".33" stop-color="#F7E3C3"/><stop offset=".38" stop-color="#EED5AF"/><stop offset=".44" stop-color="#E0C292"/><stop offset=".49" stop-color="#CFA96D"/><stop offset=".5" stop-color="#CCA566"/><stop offset=".8" stop-color="#FFE4BA"/><stop offset="1" stop-color="#7D5412"/></linearGradient><linearGradient id="c" x1="37.5" x2="37.5" y1="161.097" y2="581.698" gradientUnits="userSpaceOnUse"><stop offset=".02" stop-color="#CCA566"/><stop offset=".06" stop-color="#D3AF75"/><stop offset=".14" stop-color="#E5C99C"/><stop offset=".23" stop-color="#FFEED4"/><stop offset=".28" stop-color="#FDEBD0"/><stop offset=".33" stop-color="#F7E3C3"/><stop offset=".38" stop-color="#EED5AF"/><stop offset=".44" stop-color="#E0C292"/><stop offset=".49" stop-color="#CFA96D"/><stop offset=".5" stop-color="#CCA566"/><stop offset=".8" stop-color="#FFE4BA"/><stop offset="1" stop-color="#7D5412"/></linearGradient><linearGradient id="e" x1="43.807" x2="43.807" y1="516.193" y2="534.533" gradientUnits="userSpaceOnUse"><stop offset=".02" stop-color="#CCA566"/><stop offset=".06" stop-color="#D3AF75"/><stop offset=".14" stop-color="#E5C99C"/><stop offset=".23" stop-color="#FFEED4"/><stop offset=".28" stop-color="#FDEBD0"/><stop offset=".33" stop-color="#F7E3C3"/><stop offset=".38" stop-color="#EED5AF"/><stop offset=".44" stop-color="#E0C292"/><stop offset=".49" stop-color="#CFA96D"/><stop offset=".5" stop-color="#CCA566"/><stop offset=".8" stop-color="#FFE4BA"/><stop offset="1" stop-color="#7D5412"/></linearGradient><linearGradient id="f" x1="19.045" x2="19.045" y1="511.455" y2="557.489" gradientUnits="userSpaceOnUse"><stop offset=".02" stop-color="#CCA566"/><stop offset=".06" stop-color="#D3AF75"/><stop offset=".14" stop-color="#E5C99C"/><stop offset=".23" stop-color="#FFEED4"/><stop offset=".28" stop-color="#FDEBD0"/><stop offset=".33" stop-color="#F7E3C3"/><stop offset=".38" stop-color="#EED5AF"/><stop offset=".44" stop-color="#E0C292"/><stop offset=".49" stop-color="#CFA96D"/><stop offset=".5" stop-color="#CCA566"/><stop offset=".8" stop-color="#FFE4BA"/><stop offset="1" stop-color="#7D5412"/></linearGradient><linearGradient id="g" x1="37.353" x2="37.353" y1="525.999" y2="582.114" gradientUnits="userSpaceOnUse"><stop offset=".02" stop-color="#CCA566"/><stop offset=".06" stop-color="#D3AF75"/><stop offset=".14" stop-color="#E5C99C"/><stop offset=".23" stop-color="#FFEED4"/><stop offset=".28" stop-color="#FDEBD0"/><stop offset=".33" stop-color="#F7E3C3"/><stop offset=".38" stop-color="#EED5AF"/><stop offset=".44" stop-color="#E0C292"/><stop offset=".49" stop-color="#CFA96D"/><stop offset=".5" stop-color="#CCA566"/><stop offset=".8" stop-color="#FFE4BA"/><stop offset="1" stop-color="#7D5412"/></linearGradient><linearGradient id="h" x1="42.307" x2="42.307" y1="510.247" y2="575.701" gradientUnits="userSpaceOnUse"><stop offset=".02" stop-color="#CCA566"/><stop offset=".06" stop-color="#D3AF75"/><stop offset=".14" stop-color="#E5C99C"/><stop offset=".23" stop-color="#FFEED4"/><stop offset=".28" stop-color="#FDEBD0"/><stop offset=".33" stop-color="#F7E3C3"/><stop offset=".38" stop-color="#EED5AF"/><stop offset=".44" stop-color="#E0C292"/><stop offset=".49" stop-color="#CFA96D"/><stop offset=".5" stop-color="#CCA566"/><stop offset=".8" stop-color="#FFE4BA"/><stop offset="1" stop-color="#7D5412"/></linearGradient><linearGradient id="i" x1="50.862" x2="50.862" y1="520.505" y2="566.656" gradientUnits="userSpaceOnUse"><stop offset=".02" stop-color="#CCA566"/><stop offset=".06" stop-color="#D3AF75"/><stop offset=".14" stop-color="#E5C99C"/><stop offset=".23" stop-color="#FFEED4"/><stop offset=".28" stop-color="#FDEBD0"/><stop offset=".33" stop-color="#F7E3C3"/><stop offset=".38" stop-color="#EED5AF"/><stop offset=".44" stop-color="#E0C292"/><stop offset=".49" stop-color="#CFA96D"/><stop offset=".5" stop-color="#CCA566"/><stop offset=".8" stop-color="#FFE4BA"/><stop offset="1" stop-color="#7D5412"/></linearGradient><linearGradient id="j" x1="29.099" x2="29.099" y1="515.742" y2="568.076" gradientUnits="userSpaceOnUse"><stop offset=".02" stop-color="#CCA566"/><stop offset=".06" stop-color="#D3AF75"/><stop offset=".14" stop-color="#E5C99C"/><stop offset=".23" stop-color="#FFEED4"/><stop offset=".28" stop-color="#FDEBD0"/><stop offset=".33" stop-color="#F7E3C3"/><stop offset=".38" stop-color="#EED5AF"/><stop offset=".44" stop-color="#E0C292"/><stop offset=".49" stop-color="#CFA96D"/><stop offset=".5" stop-color="#CCA566"/><stop offset=".8" stop-color="#FFE4BA"/><stop offset="1" stop-color="#7D5412"/></linearGradient><linearGradient id="k" x1="46.66" x2="46.66" y1="525.01" y2="559.416" gradientUnits="userSpaceOnUse"><stop offset=".02" stop-color="#CCA566"/><stop offset=".06" stop-color="#D3AF75"/><stop offset=".14" stop-color="#E5C99C"/><stop offset=".23" stop-color="#FFEED4"/><stop offset=".28" stop-color="#FDEBD0"/><stop offset=".33" stop-color="#F7E3C3"/><stop offset=".38" stop-color="#EED5AF"/><stop offset=".44" stop-color="#E0C292"/><stop offset=".49" stop-color="#CFA96D"/><stop offset=".5" stop-color="#CCA566"/><stop offset=".8" stop-color="#FFE4BA"/><stop offset="1" stop-color="#7D5412"/></linearGradient><linearGradient id="l" x1="45.607" x2="45.607" y1="514.362" y2="594.056" gradientUnits="userSpaceOnUse"><stop offset=".02" stop-color="#CCA566"/><stop offset=".06" stop-color="#D3AF75"/><stop offset=".14" stop-color="#E5C99C"/><stop offset=".23" stop-color="#FFEED4"/><stop offset=".28" stop-color="#FDEBD0"/><stop offset=".33" stop-color="#F7E3C3"/><stop offset=".38" stop-color="#EED5AF"/><stop offset=".44" stop-color="#E0C292"/><stop offset=".49" stop-color="#CFA96D"/><stop offset=".5" stop-color="#CCA566"/><stop offset=".8" stop-color="#FFE4BA"/><stop offset="1" stop-color="#7D5412"/></linearGradient><linearGradient id="m" x1="45.456" x2="45.456" y1="508.183" y2="571.993" gradientUnits="userSpaceOnUse"><stop offset=".02" stop-color="#CCA566"/><stop offset=".06" stop-color="#D3AF75"/><stop offset=".14" stop-color="#E5C99C"/><stop offset=".23" stop-color="#FFEED4"/><stop offset=".28" stop-color="#FDEBD0"/><stop offset=".33" stop-color="#F7E3C3"/><stop offset=".38" stop-color="#EED5AF"/><stop offset=".44" stop-color="#E0C292"/><stop offset=".49" stop-color="#CFA96D"/><stop offset=".5" stop-color="#CCA566"/><stop offset=".8" stop-color="#FFE4BA"/><stop offset="1" stop-color="#7D5412"/></linearGradient><linearGradient id="n" x1="39.604" x2="39.604" y1="524.214" y2="582.383" gradientUnits="userSpaceOnUse"><stop offset=".02" stop-color="#CCA566"/><stop offset=".06" stop-color="#D3AF75"/><stop offset=".14" stop-color="#E5C99C"/><stop offset=".23" stop-color="#FFEED4"/><stop offset=".28" stop-color="#FDEBD0"/><stop offset=".33" stop-color="#F7E3C3"/><stop offset=".38" stop-color="#EED5AF"/><stop offset=".44" stop-color="#E0C292"/><stop offset=".49" stop-color="#CFA96D"/><stop offset=".5" stop-color="#CCA566"/><stop offset=".8" stop-color="#FFE4BA"/><stop offset="1" stop-color="#7D5412"/></linearGradient><linearGradient id="o" x1="54.313" x2="54.313" y1="522.981" y2="580.577" gradientUnits="userSpaceOnUse"><stop offset=".02" stop-color="#CCA566"/><stop offset=".06" stop-color="#D3AF75"/><stop offset=".14" stop-color="#E5C99C"/><stop offset=".23" stop-color="#FFEED4"/><stop offset=".28" stop-color="#FDEBD0"/><stop offset=".33" stop-color="#F7E3C3"/><stop offset=".38" stop-color="#EED5AF"/><stop offset=".44" stop-color="#E0C292"/><stop offset=".49" stop-color="#CFA96D"/><stop offset=".5" stop-color="#CCA566"/><stop offset=".8" stop-color="#FFE4BA"/><stop offset="1" stop-color="#7D5412"/></linearGradient><linearGradient id="p" x1="46.66" x2="46.66" y1="522.575" y2="553.05" gradientUnits="userSpaceOnUse"><stop offset=".02" stop-color="#CCA566"/><stop offset=".06" stop-color="#D3AF75"/><stop offset=".14" stop-color="#E5C99C"/><stop offset=".23" stop-color="#FFEED4"/><stop offset=".28" stop-color="#FDEBD0"/><stop offset=".33" stop-color="#F7E3C3"/><stop offset=".38" stop-color="#EED5AF"/><stop offset=".44" stop-color="#E0C292"/><stop offset=".49" stop-color="#CFA96D"/><stop offset=".5" stop-color="#CCA566"/><stop offset=".8" stop-color="#FFE4BA"/><stop offset="1" stop-color="#7D5412"/></linearGradient><linearGradient id="q" x1="36.155" x2="36.155" y1="516.726" y2="586.228" gradientUnits="userSpaceOnUse"><stop offset=".02" stop-color="#CCA566"/><stop offset=".06" stop-color="#D3AF75"/><stop offset=".14" stop-color="#E5C99C"/><stop offset=".23" stop-color="#FFEED4"/><stop offset=".28" stop-color="#FDEBD0"/><stop offset=".33" stop-color="#F7E3C3"/><stop offset=".38" stop-color="#EED5AF"/><stop offset=".44" stop-color="#E0C292"/><stop offset=".49" stop-color="#CFA96D"/><stop offset=".5" stop-color="#CCA566"/><stop offset=".8" stop-color="#FFE4BA"/><stop offset="1" stop-color="#7D5412"/></linearGradient><linearGradient id="r" x1="27.449" x2="27.449" y1="535.699" y2="579.704" gradientUnits="userSpaceOnUse"><stop offset=".02" stop-color="#CCA566"/><stop offset=".06" stop-color="#D3AF75"/><stop offset=".14" stop-color="#E5C99C"/><stop offset=".23" stop-color="#FFEED4"/><stop offset=".28" stop-color="#FDEBD0"/><stop offset=".33" stop-color="#F7E3C3"/><stop offset=".38" stop-color="#EED5AF"/><stop offset=".44" stop-color="#E0C292"/><stop offset=".49" stop-color="#CFA96D"/><stop offset=".5" stop-color="#CCA566"/><stop offset=".8" stop-color="#FFE4BA"/><stop offset="1" stop-color="#7D5412"/></linearGradient><linearGradient id="s" x1="42.157" x2="42.157" y1="540.494" y2="567.315" gradientUnits="userSpaceOnUse"><stop offset=".02" stop-color="#CCA566"/><stop offset=".06" stop-color="#D3AF75"/><stop offset=".14" stop-color="#E5C99C"/><stop offset=".23" stop-color="#FFEED4"/><stop offset=".28" stop-color="#FDEBD0"/><stop offset=".33" stop-color="#F7E3C3"/><stop offset=".38" stop-color="#EED5AF"/><stop offset=".44" stop-color="#E0C292"/><stop offset=".49" stop-color="#CFA96D"/><stop offset=".5" stop-color="#CCA566"/><stop offset=".8" stop-color="#FFE4BA"/><stop offset="1" stop-color="#7D5412"/></linearGradient><linearGradient id="t" x1="32.404" x2="32.404" y1="513.768" y2="588.577" gradientUnits="userSpaceOnUse"><stop offset=".02" stop-color="#CCA566"/><stop offset=".06" stop-color="#D3AF75"/><stop offset=".14" stop-color="#E5C99C"/><stop offset=".23" stop-color="#FFEED4"/><stop offset=".28" stop-color="#FDEBD0"/><stop offset=".33" stop-color="#F7E3C3"/><stop offset=".38" stop-color="#EED5AF"/><stop offset=".44" stop-color="#E0C292"/><stop offset=".49" stop-color="#CFA96D"/><stop offset=".5" stop-color="#CCA566"/><stop offset=".8" stop-color="#FFE4BA"/><stop offset="1" stop-color="#7D5412"/></linearGradient><linearGradient id="u" x1="37.058" x2="37.058" y1="535.014" y2="551.842" gradientUnits="userSpaceOnUse"><stop offset=".02" stop-color="#CCA566"/><stop offset=".06" stop-color="#D3AF75"/><stop offset=".14" stop-color="#E5C99C"/><stop offset=".23" stop-color="#FFEED4"/><stop offset=".28" stop-color="#FDEBD0"/><stop offset=".33" stop-color="#F7E3C3"/><stop offset=".38" stop-color="#EED5AF"/><stop offset=".44" stop-color="#E0C292"/><stop offset=".49" stop-color="#CFA96D"/><stop offset=".5" stop-color="#CCA566"/><stop offset=".8" stop-color="#FFE4BA"/><stop offset="1" stop-color="#7D5412"/></linearGradient><linearGradient id="v" x1="36.977" x2="36.977" y1="516.401" y2="575.767" gradientUnits="userSpaceOnUse"><stop offset=".02" stop-color="#CCA566"/><stop offset=".06" stop-color="#D3AF75"/><stop offset=".14" stop-color="#E5C99C"/><stop offset=".23" stop-color="#FFEED4"/><stop offset=".28" stop-color="#FDEBD0"/><stop offset=".33" stop-color="#F7E3C3"/><stop offset=".38" stop-color="#EED5AF"/><stop offset=".44" stop-color="#E0C292"/><stop offset=".49" stop-color="#CFA96D"/><stop offset=".5" stop-color="#CCA566"/><stop offset=".8" stop-color="#FFE4BA"/><stop offset="1" stop-color="#7D5412"/></linearGradient></defs></svg>