<svg xmlns="http://www.w3.org/2000/svg" width="100" height="100" fill="none"><g clip-path="url(#a)"><path fill="#D19FFC" d="M19.719 86.318c5.89 0 10.664-4.775 10.664-10.664 0-5.89-4.775-10.664-10.664-10.664-5.89 0-10.664 4.774-10.664 10.664s4.774 10.664 10.664 10.664"/><path fill="#F0DEFF" d="M88.33 76.861a9.256 9.256 0 1 0 0-18.511 9.256 9.256 0 0 0 0 18.511"/><path fill="#F9F0FF" d="M79.88 30.181a7.646 7.646 0 1 0 0-15.291 7.646 7.646 0 0 0 0 15.291"/><path fill="#AD68E8" d="M11.317 60.287c6.25 0 11.317-4.943 11.317-11.04 0-6.098-5.067-11.042-11.317-11.042S0 43.15 0 49.246s5.067 11.041 11.317 11.041"/><path fill="#DEB9FF" d="M43.827 100c5.682 0 10.288-4.488 10.288-10.025S49.51 79.95 43.827 79.95 33.54 84.438 33.54 89.975 38.145 100 43.827 100"/><path fill="#E8CDFF" d="M70.268 95.608c5.398 0 9.773-4.261 9.773-9.517s-4.375-9.516-9.773-9.516-9.774 4.26-9.774 9.516 4.376 9.517 9.774 9.517"/><path fill="#8E45CE" d="M23.56 34.646c6.534 0 11.83-5.17 11.83-11.549S30.095 11.55 23.56 11.55s-11.831 5.17-11.831 11.548 5.297 11.549 11.83 11.549"/><path fill="#F6EAFF" d="M91.255 52.14c4.83 0 8.745-3.843 8.745-8.583s-3.916-8.583-8.745-8.583c-4.83 0-8.745 3.843-8.745 8.583s3.915 8.582 8.745 8.582"/><path fill="#6F2DA8" d="M52.917 24.95c6.89 0 12.475-5.585 12.475-12.475S59.807 0 52.917 0 40.442 5.585 40.442 12.475 46.028 24.95 52.917 24.95"/></g><defs><clipPath id="a"><path fill="#fff" d="M0 0h100v100H0z"/></clipPath></defs></svg>