<svg width="100" height="17" viewBox="0 0 100 17" fill="none" xmlns="http://www.w3.org/2000/svg">
<path d="M11.0246 -0.000244141C14.7718 -0.000244141 17.4837 2.65878 17.4837 6.02947C17.4837 9.49314 14.7753 12.0905 11.0246 12.0905H2.4253V16.8532H0V-0.000244141L11.0246 -0.000244141ZM11.0246 9.46185C13.3251 9.46185 14.6143 8.00896 14.6143 6.02947C14.6143 4.08126 13.3233 2.62835 11.0246 2.62835H2.4253V9.46185H11.0246Z" fill="white"/>
<path d="M77.5828 0V2.59733H67.6313V6.76833H76.7007V9.36651H67.6313V14.2214H77.8952V16.85H64.5273V0H77.5828Z" fill="white"/>
<path d="M91.7224 0V14.2248H100V16.8534H88.8574V0H91.7224Z" fill="white"/>
<path d="M28.6502 0H25.7852V16.8534H28.6502V0Z" fill="white"/>
<path d="M38.2227 16.8535L45.0384 7.68164L47.1956 9.80277L41.815 16.8535H38.2227Z" fill="white"/>
<path d="M38.043 0L51.8488 16.8534H55.1633L41.5291 0H38.043Z" fill="white"/>
<path fill-rule="evenodd" clip-rule="evenodd" d="M54.8014 1.33298H50.8047V0.029541H56.1286V3.51928H52.2372V4.28917H56.2268V5.59261H50.91V2.21584H54.8014V1.33298Z" fill="white"/>
</svg>
