<svg xmlns="http://www.w3.org/2000/svg" width="147" height="149" fill="none"><path fill="url(#a)" d="m78.635 70.838.61-33.282 23.893-23.103-.582 33.282zm6.098-30.924-.194 17.639L97.15 45.35l.333-17.612z"/><path fill="url(#b)" d="m113.81 73.307-33.262-.444 23.921-23.131 33.262.471zm-19.736-5.825 17.518.25 12.612-12.176-17.49-.25z"/><path fill="url(#c)" d="m136.844 100.043-33.123-.555L80.603 75.58l33.262.554zm-30.74-6.074 17.435.305-12.168-12.62-17.49-.305z"/><path fill="url(#d)" d="M101.171 134.628 78.054 110.72l.554-33.281 23.062 23.907zm-17.546-26.099 12.224 12.62.277-17.473-12.196-12.62z"/><path fill="url(#e)" d="m51.278 133.824.61-33.282 23.893-23.13-.61 33.281zm6.098-30.841-.305 17.528 12.612-12.203.305-17.529z"/><path fill="url(#f)" d="m49.947 98.573-33.261-.61 23.893-23.076 33.262.527zm-19.763-5.908 17.574.305 12.64-12.23-17.602-.278z"/><path fill="url(#g)" d="m73.895 72.752-33.262-.666-23.09-23.907 33.263.665zm-30.933-6.185 17.518.36-11.975-12.591-17.518-.333z"/><path fill="url(#h)" d="M75.947 70.838 52.857 46.93l.444-33.282 23.117 23.907zM58.429 44.74 70.68 57.248l.222-17.556L58.734 27.1z"/><defs><linearGradient id="a" x1="90.886" x2="90.886" y1="22.496" y2="166.745" gradientUnits="userSpaceOnUse"><stop offset=".02" stop-color="#CCA566"/><stop offset=".06" stop-color="#D3AF75"/><stop offset=".14" stop-color="#E5C99C"/><stop offset=".23" stop-color="#FFEED4"/><stop offset=".28" stop-color="#FDEBD0"/><stop offset=".33" stop-color="#F7E3C3"/><stop offset=".38" stop-color="#EED5AF"/><stop offset=".44" stop-color="#E0C292"/><stop offset=".49" stop-color="#CFA96D"/><stop offset=".5" stop-color="#CCA566"/><stop offset=".8" stop-color="#FFE4BA"/><stop offset="1" stop-color="#7D5412"/></linearGradient><linearGradient id="b" x1="109.125" x2="109.125" y1="22.496" y2="166.745" gradientUnits="userSpaceOnUse"><stop offset=".02" stop-color="#CCA566"/><stop offset=".06" stop-color="#D3AF75"/><stop offset=".14" stop-color="#E5C99C"/><stop offset=".23" stop-color="#FFEED4"/><stop offset=".28" stop-color="#FDEBD0"/><stop offset=".33" stop-color="#F7E3C3"/><stop offset=".38" stop-color="#EED5AF"/><stop offset=".44" stop-color="#E0C292"/><stop offset=".49" stop-color="#CFA96D"/><stop offset=".5" stop-color="#CCA566"/><stop offset=".8" stop-color="#FFE4BA"/><stop offset="1" stop-color="#7D5412"/></linearGradient><linearGradient id="c" x1="108.71" x2="108.71" y1="22.496" y2="166.745" gradientUnits="userSpaceOnUse"><stop offset=".02" stop-color="#CCA566"/><stop offset=".06" stop-color="#D3AF75"/><stop offset=".14" stop-color="#E5C99C"/><stop offset=".23" stop-color="#FFEED4"/><stop offset=".28" stop-color="#FDEBD0"/><stop offset=".33" stop-color="#F7E3C3"/><stop offset=".38" stop-color="#EED5AF"/><stop offset=".44" stop-color="#E0C292"/><stop offset=".49" stop-color="#CFA96D"/><stop offset=".5" stop-color="#CCA566"/><stop offset=".8" stop-color="#FFE4BA"/><stop offset="1" stop-color="#7D5412"/></linearGradient><linearGradient id="d" x1="89.834" x2="89.834" y1="22.496" y2="166.745" gradientUnits="userSpaceOnUse"><stop offset=".02" stop-color="#CCA566"/><stop offset=".06" stop-color="#D3AF75"/><stop offset=".14" stop-color="#E5C99C"/><stop offset=".23" stop-color="#FFEED4"/><stop offset=".28" stop-color="#FDEBD0"/><stop offset=".33" stop-color="#F7E3C3"/><stop offset=".38" stop-color="#EED5AF"/><stop offset=".44" stop-color="#E0C292"/><stop offset=".49" stop-color="#CFA96D"/><stop offset=".5" stop-color="#CCA566"/><stop offset=".8" stop-color="#FFE4BA"/><stop offset="1" stop-color="#7D5412"/></linearGradient><linearGradient id="e" x1="63.53" x2="63.53" y1="22.496" y2="166.745" gradientUnits="userSpaceOnUse"><stop offset=".02" stop-color="#CCA566"/><stop offset=".06" stop-color="#D3AF75"/><stop offset=".14" stop-color="#E5C99C"/><stop offset=".23" stop-color="#FFEED4"/><stop offset=".28" stop-color="#FDEBD0"/><stop offset=".33" stop-color="#F7E3C3"/><stop offset=".38" stop-color="#EED5AF"/><stop offset=".44" stop-color="#E0C292"/><stop offset=".49" stop-color="#CFA96D"/><stop offset=".5" stop-color="#CCA566"/><stop offset=".8" stop-color="#FFE4BA"/><stop offset="1" stop-color="#7D5412"/></linearGradient><linearGradient id="f" x1="45.291" x2="45.291" y1="22.496" y2="166.745" gradientUnits="userSpaceOnUse"><stop offset=".02" stop-color="#CCA566"/><stop offset=".06" stop-color="#D3AF75"/><stop offset=".14" stop-color="#E5C99C"/><stop offset=".23" stop-color="#FFEED4"/><stop offset=".28" stop-color="#FDEBD0"/><stop offset=".33" stop-color="#F7E3C3"/><stop offset=".38" stop-color="#EED5AF"/><stop offset=".44" stop-color="#E0C292"/><stop offset=".49" stop-color="#CFA96D"/><stop offset=".5" stop-color="#CCA566"/><stop offset=".8" stop-color="#FFE4BA"/><stop offset="1" stop-color="#7D5412"/></linearGradient><linearGradient id="g" x1="45.733" x2="45.733" y1="22.496" y2="166.745" gradientUnits="userSpaceOnUse"><stop offset=".02" stop-color="#CCA566"/><stop offset=".06" stop-color="#D3AF75"/><stop offset=".14" stop-color="#E5C99C"/><stop offset=".23" stop-color="#FFEED4"/><stop offset=".28" stop-color="#FDEBD0"/><stop offset=".33" stop-color="#F7E3C3"/><stop offset=".38" stop-color="#EED5AF"/><stop offset=".44" stop-color="#E0C292"/><stop offset=".49" stop-color="#CFA96D"/><stop offset=".5" stop-color="#CCA566"/><stop offset=".8" stop-color="#FFE4BA"/><stop offset="1" stop-color="#7D5412"/></linearGradient><linearGradient id="h" x1="64.638" x2="64.638" y1="22.496" y2="166.745" gradientUnits="userSpaceOnUse"><stop offset=".02" stop-color="#CCA566"/><stop offset=".06" stop-color="#D3AF75"/><stop offset=".14" stop-color="#E5C99C"/><stop offset=".23" stop-color="#FFEED4"/><stop offset=".28" stop-color="#FDEBD0"/><stop offset=".33" stop-color="#F7E3C3"/><stop offset=".38" stop-color="#EED5AF"/><stop offset=".44" stop-color="#E0C292"/><stop offset=".49" stop-color="#CFA96D"/><stop offset=".5" stop-color="#CCA566"/><stop offset=".8" stop-color="#FFE4BA"/><stop offset="1" stop-color="#7D5412"/></linearGradient></defs></svg>